<svg xmlns="http://www.w3.org/2000/svg" viewBox="0 0 524 144"><defs><style>.a{fill:#fff;}.b{fill:#e6622b;}</style></defs><title>logo_main</title><polygon class="a" points="34.53 23.38 24.41 13.26 77.97 13.26 71.72 7 9.3 7 15.55 13.26 25.67 23.38 31.93 29.63 81.86 29.63 81.86 113.91 81.86 120.16 81.86 130.28 31.35 130.28 26.07 124.99 21.24 120.16 15.96 114.88 15.96 89.3 20.03 93.37 26.07 99.41 26.07 109.28 30.7 113.91 32.34 115.54 36.96 120.16 71.75 120.16 71.75 113.91 71.75 35.89 65.5 35.89 65.5 113.91 39.55 113.91 32.34 106.69 32.34 96.82 9.7 74.18 9.7 117.48 28.76 136.54 81.86 136.54 88.12 136.54 88.12 130.28 88.12 120.16 88.12 113.91 88.12 29.63 88.12 23.38 81.86 23.38 34.53 23.38"/><polygon class="a" points="116.95 130.28 106.83 130.28 106.83 29.63 152.16 29.63 159.37 36.85 159.37 63.27 159.37 67.01 152.16 74.22 129.46 74.22 129.46 80.48 154.74 80.48 159.37 75.86 161.01 74.22 165.63 69.6 165.63 69.52 165.63 34.25 161.01 29.63 159.37 28 154.75 23.38 106.83 23.38 100.58 23.38 100.58 29.63 100.58 130.28 100.58 130.28 100.58 136.54 100.58 136.54 100.58 136.54 106.83 136.54 106.83 136.54 116.95 136.54 116.95 136.54 123.2 136.54 123.2 103.03 116.95 103.03 116.95 130.28"/><polygon class="a" points="175.75 19.8 175.74 19.79 169.21 13.27 162.95 7 106.83 7 100.58 7 100.58 13.26 100.58 13.27 160.35 13.27 165.51 18.43 165.63 18.54 175.74 28.65 175.74 70.78 175.74 75.2 173.52 77.42 165.63 85.31 160.35 90.59 123.2 90.59 123.2 80.48 123.2 74.22 123.2 35.89 116.95 35.89 116.95 80 116.95 87.59 116.95 90.59 116.95 96.85 123.2 96.85 162.95 96.85 169.2 90.59 175.74 84.06 177.96 81.85 179.31 80.48 182 77.8 182 26.06 175.75 19.8"/><path class="a" d="M209.47,26.76h5.07v27a13.38,13.38,0,0,1-1.11,5.85,10.18,10.18,0,0,1-2.77,3.58A9.94,9.94,0,0,1,207.1,65a13.57,13.57,0,0,1-3.49.51,10.67,10.67,0,0,1-6.67-2.06,9.45,9.45,0,0,1-3.46-6.22l5-1.12a6,6,0,0,0,1.74,3.36,4.84,4.84,0,0,0,3.43,1.23,5.45,5.45,0,0,0,3-.75,5.2,5.2,0,0,0,1.77-2,8.21,8.21,0,0,0,.84-2.75,23.36,23.36,0,0,0,.21-3.15Z"/><path class="a" d="M218.18,51.93a13,13,0,0,1,1-5.19A13.7,13.7,0,0,1,222,42.52a13.4,13.4,0,0,1,4.22-2.86,13.65,13.65,0,0,1,10.45,0,13.34,13.34,0,0,1,4.23,2.86,13.7,13.7,0,0,1,2.82,4.22,13,13,0,0,1,1,5.19,13.2,13.2,0,0,1-1,5.21,13.35,13.35,0,0,1-2.82,4.22,13.59,13.59,0,0,1-4.23,2.83,13.65,13.65,0,0,1-10.45,0A13.66,13.66,0,0,1,222,61.36a13.35,13.35,0,0,1-2.82-4.22A13.2,13.2,0,0,1,218.18,51.93Zm5.07,0a10.45,10.45,0,0,0,.58,3.55,8,8,0,0,0,1.63,2.78,7.65,7.65,0,0,0,2.59,1.81,9.11,9.11,0,0,0,6.86,0,7.65,7.65,0,0,0,2.59-1.81,8,8,0,0,0,1.63-2.78,11.18,11.18,0,0,0,0-7.11,8.07,8.07,0,0,0-1.63-2.78,7.65,7.65,0,0,0-2.59-1.81,9.11,9.11,0,0,0-6.86,0,7.65,7.65,0,0,0-2.59,1.81,8.07,8.07,0,0,0-1.63,2.78A10.47,10.47,0,0,0,223.25,51.93Z"/><path class="a" d="M248.1,24.19h4.75v19H253a7.06,7.06,0,0,1,3.11-3.28,10.2,10.2,0,0,1,5.12-1.26,10.86,10.86,0,0,1,3.46.56,7.71,7.71,0,0,1,2.9,1.74,8.27,8.27,0,0,1,2,3,11.72,11.72,0,0,1,.74,4.35v16.3h-4.75v-15a8.71,8.71,0,0,0-.47-3,5.47,5.47,0,0,0-1.27-2A4.66,4.66,0,0,0,262,43.46a6.45,6.45,0,0,0-2.14-.35,7.66,7.66,0,0,0-2.74.48,5.7,5.7,0,0,0-2.22,1.52,7.29,7.29,0,0,0-1.48,2.65,12.21,12.21,0,0,0-.53,3.79v13H248.1Z"/><path class="a" d="M274.92,42.36a13,13,0,0,1,4.64-2.8,15.57,15.57,0,0,1,5.28-.94,14.37,14.37,0,0,1,4.72.69,9.39,9.39,0,0,1,3.25,1.87,7.47,7.47,0,0,1,1.87,2.7,8.64,8.64,0,0,1,.61,3.18V60c0,.89,0,1.71,0,2.46s.09,1.46.16,2.14h-4.22c-.11-1.28-.16-2.57-.16-3.85H291a9.14,9.14,0,0,1-3.74,3.48,11.84,11.84,0,0,1-5,1,11.34,11.34,0,0,1-3.32-.48,8,8,0,0,1-2.77-1.44,6.86,6.86,0,0,1-1.88-2.38,8.33,8.33,0,0,1,.4-7.4,8.11,8.11,0,0,1,2.95-2.7,14.48,14.48,0,0,1,4.38-1.5,30.34,30.34,0,0,1,5.36-.45h3.48V47.81a5.24,5.24,0,0,0-.37-1.92,5.18,5.18,0,0,0-1.1-1.74,5.26,5.26,0,0,0-1.85-1.23,7,7,0,0,0-2.64-.45,10,10,0,0,0-2.4.26,11.49,11.49,0,0,0-1.88.67,8.35,8.35,0,0,0-1.53.94l-1.31,1Zm13.4,10a34.15,34.15,0,0,0-3.46.18,14,14,0,0,0-3.22.72,6.34,6.34,0,0,0-2.37,1.5,3.38,3.38,0,0,0-.92,2.46,3.49,3.49,0,0,0,1.45,3.15,7,7,0,0,0,3.93,1,7.59,7.59,0,0,0,3.32-.66A6.29,6.29,0,0,0,289.27,59a6.71,6.71,0,0,0,1.21-2.38,9.37,9.37,0,0,0,.37-2.59v-1.6Z"/><path class="a" d="M299.56,39.26h4.75v3.9h.11a7,7,0,0,1,3.11-3.28,10.2,10.2,0,0,1,5.12-1.26,10.86,10.86,0,0,1,3.46.56,7.78,7.78,0,0,1,2.9,1.74,8.27,8.27,0,0,1,2,3,11.72,11.72,0,0,1,.74,4.35v16.3H317v-15a8.47,8.47,0,0,0-.48-3,5.45,5.45,0,0,0-1.26-2,4.74,4.74,0,0,0-1.82-1.12,6.45,6.45,0,0,0-2.14-.35,7.72,7.72,0,0,0-2.75.48,5.74,5.74,0,0,0-2.21,1.52,7.15,7.15,0,0,0-1.48,2.65,12.21,12.21,0,0,0-.53,3.79v13h-4.75Z"/><path class="a" d="M326.27,39.26H331v3.9h.1a7,7,0,0,1,3.12-3.28,10.15,10.15,0,0,1,5.12-1.26,10.8,10.8,0,0,1,3.45.56,7.82,7.82,0,0,1,2.91,1.74,8.53,8.53,0,0,1,2,3,11.73,11.73,0,0,1,.73,4.35v16.3h-4.75v-15a8.48,8.48,0,0,0-.47-3,5.47,5.47,0,0,0-1.27-2,4.66,4.66,0,0,0-1.82-1.12,6.4,6.4,0,0,0-2.14-.35,7.66,7.66,0,0,0-2.74.48A5.77,5.77,0,0,0,333,45.11a7.44,7.44,0,0,0-1.48,2.65,12.22,12.22,0,0,0-.52,3.79v13h-4.75Z"/><path class="a" d="M366.54,26.76H377.3a19.83,19.83,0,0,1,4.09.45,11.7,11.7,0,0,1,3.91,1.58,8.74,8.74,0,0,1,2.9,3.07,9.56,9.56,0,0,1,1.14,4.89,9.81,9.81,0,0,1-.93,4.43,8.56,8.56,0,0,1-2.48,3.08,10.62,10.62,0,0,1-3.59,1.79,15.26,15.26,0,0,1-4.25.59H370v18h-3.48ZM370,43.43h7.92a12.31,12.31,0,0,0,2.9-.35A7.35,7.35,0,0,0,383.37,42a5.82,5.82,0,0,0,1.8-2.06,6.67,6.67,0,0,0,.68-3.15,6.23,6.23,0,0,0-.71-3.1,6.39,6.39,0,0,0-1.85-2.11,7.44,7.44,0,0,0-2.61-1.2,11.94,11.94,0,0,0-2.95-.38H370Z"/><path class="a" d="M412.24,54.22c0,1.21,0,2.3,0,3.26s0,1.86.08,2.67.08,1.59.13,2.3.13,1.43.24,2.14h-3a23.53,23.53,0,0,1-.32-4h-.1a9,9,0,0,1-3.4,3.53,10.56,10.56,0,0,1-5.15,1.12,12.06,12.06,0,0,1-3.11-.4,8.08,8.08,0,0,1-2.75-1.28,6.59,6.59,0,0,1-2.74-5.64,6.66,6.66,0,0,1,1.42-4.49,8.89,8.89,0,0,1,3.51-2.48,16.23,16.23,0,0,1,4.43-1.07,41.46,41.46,0,0,1,4.15-.24h3.69v-1.5q0-3.21-1.95-4.59a8.23,8.23,0,0,0-4.91-1.39,11.07,11.07,0,0,0-7.44,2.77l-1.85-2.19a11.31,11.31,0,0,1,4.33-2.59,15.56,15.56,0,0,1,5-.88,11,11,0,0,1,7.07,2.11q2.64,2.12,2.64,6.81Zm-6.33-2a27.17,27.17,0,0,0-3.88.27,13.48,13.48,0,0,0-3.38.91,6.37,6.37,0,0,0-2.4,1.71,4.34,4.34,0,0,0-.4,4.67,4.54,4.54,0,0,0,1.3,1.45,5.92,5.92,0,0,0,1.77.85,6.68,6.68,0,0,0,2,.3,10,10,0,0,0,4.17-.75,7.06,7.06,0,0,0,2.62-2A6.72,6.72,0,0,0,409,56.92a12.77,12.77,0,0,0,.37-3.07V52.19Z"/><path class="a" d="M438.68,57.64c0,.47,0,1,.06,1.69s.06,1.32.08,2,0,1.31.08,1.9.05,1,.05,1.36h-3.17c0-.93-.06-1.82-.08-2.67a8.8,8.8,0,0,0-.13-1.66h-.16a8.55,8.55,0,0,1-3.17,3.5,9.12,9.12,0,0,1-5.17,1.47,10.41,10.41,0,0,1-4.67-.91,7.46,7.46,0,0,1-2.85-2.38,8.85,8.85,0,0,1-1.4-3.39,21.42,21.42,0,0,1-.37-3.95V39.9H421V54.44a16.4,16.4,0,0,0,.26,2.91,7.93,7.93,0,0,0,.93,2.54A4.83,4.83,0,0,0,424,61.68a6.3,6.3,0,0,0,3.08.67,8.92,8.92,0,0,0,3.3-.62,7,7,0,0,0,2.69-1.87,9.1,9.1,0,0,0,1.8-3.15,13.6,13.6,0,0,0,.66-4.46V39.9h3.16Z"/><path class="a" d="M445.28,24.19h3.17v40.4h-3.17Z"/><path class="a" d="M454.52,30.12a2.39,2.39,0,0,1,.68-1.71,2.41,2.41,0,0,1,3.38,0,2.35,2.35,0,0,1,.69,1.71,2.32,2.32,0,0,1-.69,1.71,2.39,2.39,0,0,1-3.38,0A2.35,2.35,0,0,1,454.52,30.12Zm.79,9.78h3.17V64.59h-3.17Z"/><path class="a" d="M464.81,46.85c0-.46,0-1-.05-1.68s-.07-1.33-.08-2-.05-1.31-.08-1.9-.06-1-.06-1.36h3.17c0,.93.06,1.82.08,2.67a8.8,8.8,0,0,0,.13,1.66h.16a8.61,8.61,0,0,1,3.17-3.5,9.14,9.14,0,0,1,5.17-1.47,10.19,10.19,0,0,1,4.64.91,7.56,7.56,0,0,1,2.83,2.38,9,9,0,0,1,1.42,3.39,19.11,19.11,0,0,1,.4,4v14.7h-3.17V50.06a16.52,16.52,0,0,0-.26-2.92,7.93,7.93,0,0,0-.93-2.54,4.94,4.94,0,0,0-1.84-1.79,6.32,6.32,0,0,0-3.09-.66,8.91,8.91,0,0,0-3.3.61,7.07,7.07,0,0,0-2.69,1.87,8.93,8.93,0,0,0-1.79,3.15,13.67,13.67,0,0,0-.66,4.47V64.59h-3.17Z"/><path class="a" d="M490.14,52.25a14,14,0,0,1,.95-5.21,12.5,12.5,0,0,1,2.64-4.12,11.74,11.74,0,0,1,4.06-2.7,13.72,13.72,0,0,1,5.18-1,13.44,13.44,0,0,1,5.14,1,12.07,12.07,0,0,1,4.07,2.7A12.24,12.24,0,0,1,514.84,47a14.76,14.76,0,0,1,0,10.42,12.29,12.29,0,0,1-2.66,4.11,12.07,12.07,0,0,1-4.07,2.7,13.44,13.44,0,0,1-5.14,1,13.72,13.72,0,0,1-5.18-1,11.74,11.74,0,0,1-4.06-2.7,12.56,12.56,0,0,1-2.64-4.11A14,14,0,0,1,490.14,52.25Zm3.17,0a11.52,11.52,0,0,0,.66,3.92,9.09,9.09,0,0,0,5,5.37,10.33,10.33,0,0,0,8,0A9.33,9.33,0,0,0,510,59.38,9.46,9.46,0,0,0,512,56.17a12,12,0,0,0,0-7.85A9.46,9.46,0,0,0,510,45.11,9.33,9.33,0,0,0,507,43a10.45,10.45,0,0,0-8,0,9.09,9.09,0,0,0-5,5.37A11.58,11.58,0,0,0,493.31,52.25Z"/><path class="b" d="M374.59,79.4v8.74a7.81,7.81,0,0,1-.32,2.35,4.49,4.49,0,0,1-1,1.78,4.41,4.41,0,0,1-1.69,1.13,6.53,6.53,0,0,1-2.42.4,9.17,9.17,0,0,1-2.54-.34,5.72,5.72,0,0,1-2.22-1.24l1.44-2a5.87,5.87,0,0,0,1.5,1,4.25,4.25,0,0,0,1.8.36,3.82,3.82,0,0,0,1.45-.24,2.28,2.28,0,0,0,.94-.66,2.46,2.46,0,0,0,.5-1,5.3,5.3,0,0,0,.15-1.31v-.7h0a3,3,0,0,1-1.38,1,4.68,4.68,0,0,1-1.76.35,4.7,4.7,0,0,1-3.47-1.44,4.62,4.62,0,0,1-1-1.56,5.54,5.54,0,0,1-.34-1.92,6,6,0,0,1,.32-2,4.73,4.73,0,0,1,.94-1.6A4.58,4.58,0,0,1,367,79.55a4.84,4.84,0,0,1,2-.39,4.46,4.46,0,0,1,1.9.4,3,3,0,0,1,1.4,1.28h0V79.4Zm-5.12,1.92a3.11,3.11,0,0,0-1.16.21,2.69,2.69,0,0,0-.89.58,2.79,2.79,0,0,0-.58.9,3.13,3.13,0,0,0-.21,1.17,2.74,2.74,0,0,0,.21,1.08,2.78,2.78,0,0,0,.59.88,3.08,3.08,0,0,0,.9.6,2.8,2.8,0,0,0,1.12.22,3,3,0,0,0,1.19-.22,2.61,2.61,0,0,0,.9-.59,2.43,2.43,0,0,0,.57-.89,3,3,0,0,0,.2-1.12,2.65,2.65,0,0,0-2.84-2.82Z"/><path class="b" d="M376.81,79.4h2.4v1.52h0a3.08,3.08,0,0,1,1.14-1.3,3.14,3.14,0,0,1,1.7-.46,2,2,0,0,1,.43,0l.43.1v2.32c-.2-.05-.39-.1-.59-.13a3.66,3.66,0,0,0-.57,0,2.55,2.55,0,0,0-1.35.31,2.46,2.46,0,0,0-.78.71,2.36,2.36,0,0,0-.36.8,3.08,3.08,0,0,0-.09.6V89h-2.4Z"/><path class="b" d="M390.09,87.68H390a3,3,0,0,1-1.32,1.19,4.08,4.08,0,0,1-1.76.37,4.67,4.67,0,0,1-1.29-.18,3.53,3.53,0,0,1-1.12-.54,2.85,2.85,0,0,1-.79-.9,2.55,2.55,0,0,1-.3-1.26,3,3,0,0,1,.28-1.33,2.81,2.81,0,0,1,.75-.92,3.94,3.94,0,0,1,1.09-.59,7.18,7.18,0,0,1,1.29-.33,12.36,12.36,0,0,1,1.35-.14l1.28,0h.6v-.26a1.54,1.54,0,0,0-.62-1.35,2.62,2.62,0,0,0-1.58-.45,3.74,3.74,0,0,0-1.42.27,3.54,3.54,0,0,0-1.14.73l-1.26-1.26a4.68,4.68,0,0,1,1.87-1.18,6.91,6.91,0,0,1,2.21-.36,5.64,5.64,0,0,1,1.72.23A3.6,3.6,0,0,1,391,80a2.52,2.52,0,0,1,.71.83,3.56,3.56,0,0,1,.36,1,4.43,4.43,0,0,1,.13.93c0,.3,0,.56,0,.79V89h-2.16Zm-.14-3h-.5c-.33,0-.7,0-1.12,0a6.21,6.21,0,0,0-1.17.19,2.86,2.86,0,0,0-.93.44,1,1,0,0,0-.38.81,1,1,0,0,0,.15.57,1.45,1.45,0,0,0,.39.39,1.63,1.63,0,0,0,.54.23,2.46,2.46,0,0,0,.6.07,2.5,2.5,0,0,0,1.83-.59,2.14,2.14,0,0,0,.59-1.61Z"/><path class="b" d="M394.33,79.4h2.28v1.44h0a3.09,3.09,0,0,1,1.4-1.28,4.5,4.5,0,0,1,1.9-.4,4.86,4.86,0,0,1,2,.39,4.41,4.41,0,0,1,1.5,1.07,4.57,4.57,0,0,1,.94,1.6,6,6,0,0,1,.32,2,5.57,5.57,0,0,1-.34,2,4.75,4.75,0,0,1-1,1.6,4.39,4.39,0,0,1-1.47,1.07,4.49,4.49,0,0,1-1.88.39,4.82,4.82,0,0,1-1.2-.14,3.84,3.84,0,0,1-.92-.36,4.05,4.05,0,0,1-.68-.47,3.4,3.4,0,0,1-.46-.49h-.06v5.78h-2.4Zm8,4.8a3.07,3.07,0,0,0-.19-1.08,2.71,2.71,0,0,0-.56-.92,2.74,2.74,0,0,0-.89-.64,3,3,0,0,0-2.36,0,2.74,2.74,0,0,0-.89.64,2.88,2.88,0,0,0-.56.92,3.16,3.16,0,0,0,0,2.16,2.88,2.88,0,0,0,.56.92,2.74,2.74,0,0,0,.89.64,3,3,0,0,0,2.36,0,2.74,2.74,0,0,0,.89-.64,2.71,2.71,0,0,0,.56-.92A3.07,3.07,0,0,0,402.29,84.2Z"/><path class="b" d="M408.83,80.74h0a2.88,2.88,0,0,1,1-1.09,3.12,3.12,0,0,1,1.83-.49,3.82,3.82,0,0,1,1.63.32,3,3,0,0,1,1.09.84,3.23,3.23,0,0,1,.6,1.2,5.53,5.53,0,0,1,.18,1.42V89h-2.4V84.14c0-.27,0-.56,0-.89a3.43,3.43,0,0,0-.21-.92,1.66,1.66,0,0,0-.53-.72,1.55,1.55,0,0,0-1-.29,2.33,2.33,0,0,0-1,.2,1.9,1.9,0,0,0-.68.54,2.2,2.2,0,0,0-.39.78,3.46,3.46,0,0,0-.12.92V89h-2.4V73.88h2.4Z"/><path class="b" d="M417.11,76.14a1.37,1.37,0,0,1,.43-1,1.47,1.47,0,0,1,1.09-.43,1.6,1.6,0,0,1,1.11.41,1.4,1.4,0,0,1,0,2.06,1.6,1.6,0,0,1-1.11.41,1.47,1.47,0,0,1-1.09-.43A1.37,1.37,0,0,1,417.11,76.14Zm.34,3.26h2.4V89h-2.4Z"/><path class="b" d="M428.67,82.28a3.76,3.76,0,0,0-.88-.7,1.93,1.93,0,0,0-.94-.26,2.8,2.8,0,0,0-1.18.24,2.74,2.74,0,0,0-.89.64,2.71,2.71,0,0,0-.56.92,3.16,3.16,0,0,0,0,2.16,2.71,2.71,0,0,0,.56.92,2.74,2.74,0,0,0,.89.64,2.8,2.8,0,0,0,1.18.24,2.43,2.43,0,0,0,1-.23,2.29,2.29,0,0,0,.82-.67l1.6,1.72a3.67,3.67,0,0,1-.83.62,6.11,6.11,0,0,1-1,.42,5.89,5.89,0,0,1-.92.23,4.55,4.55,0,0,1-.76.07,5.76,5.76,0,0,1-2-.36,4.93,4.93,0,0,1-1.66-1A4.74,4.74,0,0,1,422,86.27a5.43,5.43,0,0,1,0-4.14,4.74,4.74,0,0,1,1.11-1.59,4.93,4.93,0,0,1,1.66-1,5.76,5.76,0,0,1,2-.36,5.31,5.31,0,0,1,1.85.35,4.16,4.16,0,0,1,1.63,1.11Z"/><path class="b" d="M444.27,87.56h0a3.09,3.09,0,0,1-1.4,1.28,4.46,4.46,0,0,1-1.9.4,4.81,4.81,0,0,1-2-.39,4.47,4.47,0,0,1-1.49-1.07,4.57,4.57,0,0,1-.94-1.6,6,6,0,0,1-.32-2,5.57,5.57,0,0,1,.34-2,4.92,4.92,0,0,1,1-1.6,4.43,4.43,0,0,1,3.35-1.46,4.82,4.82,0,0,1,1.2.14,3.84,3.84,0,0,1,.92.36,3.68,3.68,0,0,1,.68.47,3.4,3.4,0,0,1,.46.49h.06V73.88h2.4V89h-2.28Zm-5.68-3.36a3.07,3.07,0,0,0,.19,1.08,2.71,2.71,0,0,0,.56.92,2.74,2.74,0,0,0,.89.64,2.8,2.8,0,0,0,1.18.24,2.74,2.74,0,0,0,2.07-.88,2.56,2.56,0,0,0,.56-.92,3.16,3.16,0,0,0,0-2.16,2.56,2.56,0,0,0-.56-.92,2.74,2.74,0,0,0-2.07-.88,2.8,2.8,0,0,0-1.18.24,2.74,2.74,0,0,0-.89.64,2.71,2.71,0,0,0-.56.92A3.07,3.07,0,0,0,438.59,84.2Z"/><path class="b" d="M450.69,85a2.44,2.44,0,0,0,.84,1.68,2.63,2.63,0,0,0,1.74.6,2.84,2.84,0,0,0,1.51-.37,4.32,4.32,0,0,0,1.07-.93l1.72,1.3a4.9,4.9,0,0,1-1.88,1.48,5.59,5.59,0,0,1-2.18.44,5.76,5.76,0,0,1-2-.36,4.93,4.93,0,0,1-1.66-1,4.74,4.74,0,0,1-1.11-1.59,5.43,5.43,0,0,1,0-4.14,4.74,4.74,0,0,1,1.11-1.59,4.93,4.93,0,0,1,1.66-1,5.76,5.76,0,0,1,2-.36,4.7,4.7,0,0,1,1.83.35,3.89,3.89,0,0,1,1.42,1,4.69,4.69,0,0,1,.92,1.63,6.93,6.93,0,0,1,.33,2.23V85Zm4.92-1.8a2.23,2.23,0,0,0-.66-1.67,2.47,2.47,0,0,0-1.78-.61,2.35,2.35,0,0,0-1.71.62,2.75,2.75,0,0,0-.77,1.66Z"/><path class="b" d="M464.87,82.06a2.2,2.2,0,0,0-1.88-1,2,2,0,0,0-.94.24.81.81,0,0,0-.46.78.68.68,0,0,0,.38.64,4.08,4.08,0,0,0,1,.34l1.25.29a4.79,4.79,0,0,1,1.25.46,2.71,2.71,0,0,1,1,.85,2.55,2.55,0,0,1,.38,1.48,2.65,2.65,0,0,1-.37,1.45,3,3,0,0,1-1,1,4.34,4.34,0,0,1-1.33.52,6.77,6.77,0,0,1-1.48.16,6.45,6.45,0,0,1-2.06-.32,3.85,3.85,0,0,1-1.68-1.16l1.6-1.5a4.57,4.57,0,0,0,1,.85,2.38,2.38,0,0,0,1.29.33,2.62,2.62,0,0,0,.54-.06,1.81,1.81,0,0,0,.52-.2,1.2,1.2,0,0,0,.39-.35.81.81,0,0,0,.15-.49.82.82,0,0,0-.38-.74,3.31,3.31,0,0,0-1-.39c-.39-.1-.8-.19-1.25-.28a5.11,5.11,0,0,1-1.25-.42,2.51,2.51,0,0,1-1-.81,2.44,2.44,0,0,1-.38-1.44,2.8,2.8,0,0,1,.33-1.39,2.9,2.9,0,0,1,.87-1,3.8,3.8,0,0,1,1.24-.56,5.66,5.66,0,0,1,3.32.15,3.12,3.12,0,0,1,1.52,1.13Z"/><path class="b" d="M467.83,76.14a1.37,1.37,0,0,1,.43-1,1.47,1.47,0,0,1,1.09-.43,1.6,1.6,0,0,1,1.11.41,1.4,1.4,0,0,1,0,2.06,1.6,1.6,0,0,1-1.11.41,1.47,1.47,0,0,1-1.09-.43A1.37,1.37,0,0,1,467.83,76.14Zm.34,3.26h2.4V89h-2.4Z"/><path class="b" d="M482.71,79.4v8.74a8.14,8.14,0,0,1-.32,2.35,4.33,4.33,0,0,1-2.68,2.91,6.56,6.56,0,0,1-2.42.4,9.17,9.17,0,0,1-2.54-.34,5.72,5.72,0,0,1-2.22-1.24l1.44-2a5.87,5.87,0,0,0,1.5,1,4.25,4.25,0,0,0,1.8.36,3.86,3.86,0,0,0,1.45-.24,2.34,2.34,0,0,0,.94-.66,2.59,2.59,0,0,0,.5-1,5.3,5.3,0,0,0,.15-1.31v-.7h0a3.15,3.15,0,0,1-1.38,1,4.68,4.68,0,0,1-1.76.35,4.8,4.8,0,0,1-2-.39,4.55,4.55,0,0,1-2.48-2.61,5.32,5.32,0,0,1-.34-1.92,6,6,0,0,1,.32-2,4.57,4.57,0,0,1,.94-1.6,4.47,4.47,0,0,1,1.49-1.07,4.81,4.81,0,0,1,2-.39,4.5,4.5,0,0,1,1.9.4,3.09,3.09,0,0,1,1.4,1.28h0V79.4Zm-5.12,1.92a3.07,3.07,0,0,0-1.16.21,2.59,2.59,0,0,0-.89.58,2.63,2.63,0,0,0-.58.9,3.13,3.13,0,0,0-.21,1.17,2.74,2.74,0,0,0,.21,1.08,2.78,2.78,0,0,0,.59.88,2.84,2.84,0,0,0,.9.6,2.8,2.8,0,0,0,1.12.22,3,3,0,0,0,1.19-.22,2.81,2.81,0,0,0,.9-.59,2.43,2.43,0,0,0,.57-.89,3.18,3.18,0,0,0,.2-1.12,2.65,2.65,0,0,0-2.84-2.82Z"/><path class="b" d="M484.93,79.4h2.28v1.54h0a3.34,3.34,0,0,1,1-1.25,3.1,3.1,0,0,1,1.9-.53,3.82,3.82,0,0,1,1.63.32,3,3,0,0,1,1.09.84,3.23,3.23,0,0,1,.6,1.2,5.53,5.53,0,0,1,.18,1.42V89h-2.4V84.14c0-.27,0-.56,0-.89a3.43,3.43,0,0,0-.21-.92,1.66,1.66,0,0,0-.53-.72,1.55,1.55,0,0,0-1-.29,2.33,2.33,0,0,0-1,.2,1.9,1.9,0,0,0-.68.54,2.2,2.2,0,0,0-.39.78,3.46,3.46,0,0,0-.12.92V89h-2.4Z"/><path class="b" d="M497.83,85a2.44,2.44,0,0,0,.84,1.68,2.63,2.63,0,0,0,1.74.6,2.84,2.84,0,0,0,1.51-.37A4.32,4.32,0,0,0,503,86l1.72,1.3a4.9,4.9,0,0,1-1.88,1.48,5.59,5.59,0,0,1-2.18.44,5.76,5.76,0,0,1-2-.36,4.93,4.93,0,0,1-1.66-1,4.74,4.74,0,0,1-1.11-1.59,5.43,5.43,0,0,1,0-4.14A4.74,4.74,0,0,1,497,80.54a4.93,4.93,0,0,1,1.66-1,5.76,5.76,0,0,1,2-.36,4.7,4.7,0,0,1,1.83.35,3.89,3.89,0,0,1,1.42,1,4.69,4.69,0,0,1,.92,1.63,6.93,6.93,0,0,1,.33,2.23V85Zm4.92-1.8a2.23,2.23,0,0,0-.66-1.67,2.47,2.47,0,0,0-1.78-.61,2.35,2.35,0,0,0-1.71.62,2.75,2.75,0,0,0-.77,1.66Z"/><path class="b" d="M506.89,79.4h2.4v1.52h0a3.08,3.08,0,0,1,1.14-1.3,3.12,3.12,0,0,1,1.7-.46,2,2,0,0,1,.43,0l.43.1v2.32c-.2-.05-.4-.1-.59-.13a3.66,3.66,0,0,0-.57,0,2.55,2.55,0,0,0-1.35.31,2.46,2.46,0,0,0-.78.71,2.36,2.36,0,0,0-.36.8,3.08,3.08,0,0,0-.09.6V89h-2.4Z"/></svg>